<svg xmlns="http://www.w3.org/2000/svg" width="510" height="308" viewBox="0 0 510 308" role="img" aria-labelledby="title desc"><title id="title">Air Pollution Data — From scattered sources to usable data.</title><desc id="desc">Air Pollution Data — From scattered sources to usable data.</desc><style>text{font-family:DejaVu Sans,Arial,sans-serif} .flow{stroke-dasharray:5 12;animation:flow 18s linear infinite}@keyframes flow{to{stroke-dashoffset:-170}}.drift{animation:drift 7s ease-in-out infinite}@keyframes drift{50%{transform:translateY(-7px)}}.signal{animation:signal 5s ease-in-out infinite}@keyframes signal{50%{opacity:.3}} @media(prefers-reduced-motion:reduce){.drift,.signal,.flow{animation:none!important}}</style><rect x="1" y="1" width="508" height="306" rx="22" fill="#f6f7f0" stroke="#d3ddc9" /><defs><clipPath id="card"><rect x="1" y="1" width="508" height="306" rx="20" fill="white" stroke="none" /></clipPath></defs><g clip-path="url(#card)"><rect x="1" y="1" width="508" height="167" rx="0" fill="#edf0e5" stroke="none" /><g transform="translate(335 88)"><rect x="-42" y="-30" width="105" height="22" rx="6" fill="#edf0e5" stroke="#7760aa" opacity="0.4"/><circle cx="-28" cy="-19" r="3" fill="#7760aa"/><path d="M-13 -19L45 -19" fill="none" stroke="#7760aa" opacity=".4"/><rect x="-42" y="0" width="105" height="22" rx="6" fill="#edf0e5" stroke="#7760aa" opacity="0.65"/><circle cx="-28" cy="11" r="3" fill="#7760aa"/><path d="M-13 11L45 11" fill="none" stroke="#7760aa" opacity=".4"/><rect x="-42" y="30" width="105" height="22" rx="6" fill="#edf0e5" stroke="#7760aa" opacity="0.9"/><circle cx="-28" cy="41" r="3" fill="#7760aa"/><path d="M-13 41L45 41" fill="none" stroke="#7760aa" opacity=".4"/><path class="flow" d="M-93-45V43Q-93 61-73 61H4V52M112 4H76V-45H10" fill="none" stroke="#7760aa" stroke-width="1.5"/><circle cx="-93" cy="-47" r="7" fill="#7760aa"/><circle cx="114" cy="4" r="5" fill="#7760aa"/></g><text x="25" y="35" font-size="10" fill="#5b6f5c" font-family="DejaVu Sans Mono,monospace" letter-spacing=".8">DATA / TOOLING</text><text x="23" y="114" font-size="63" fill="#7760aa" font-weight="700" letter-spacing="-4">03</text><text x="26" y="144" font-size="9" fill="#5b6f5c" font-family="DejaVu Sans Mono,monospace" letter-spacing="1.5">SELECTED PROJECT</text><path d="M1 169L509 169" fill="none" stroke="#d3ddc9" /><text x="25" y="209" font-size="23" fill="#223424" font-weight="700" letter-spacing="-.6">Air Pollution Data</text><text x="25" y="238" font-size="13" fill="#5b6f5c" >From scattered sources to usable data.</text><text x="25" y="282" font-size="9" fill="#7760aa" font-family="DejaVu Sans Mono,monospace" >TYPESCRIPT  ·  DATA COLLECTION</text><g transform="translate(477 279)" fill="none" stroke="#7760aa" stroke-width="1.8"><path d="M-6 6L6-6M-6-6H6V6"/></g></g></svg>
